<?xml version="1.0" standalone="no"?>
<!DOCTYPE svg PUBLIC "-//W3C//DTD SVG 20010904//EN" "http://www.w3.org/TR/2001/REC-SVG-20010904/DTD/svg10.dtd">
<svg version="1.0" xmlns="http://www.w3.org/2000/svg"  width="636.000000pt" height="636.000000pt" viewBox="0 0 636.000000 636.000000"  preserveAspectRatio="xMidYMid meet">
<g transform="translate(0.000000,636.000000) scale(0.100000,-0.100000)" fill="#ff0000" stroke="none">
<path d="M3217 6234 c-16 -8 -37 -12 -48 -9 -26 9 -137 -43 -144 -66 -11 -34
-32 -42 -66 -25 -43 22 -59 20 -92 -8 -16 -14 -43 -28 -60 -32 -65 -13 -108
-37 -123 -65 -13 -26 -13 -33 1 -66 9 -20 32 -51 52 -69 32 -29 37 -40 44 -98
5 -41 20 -87 39 -124 19 -36 28 -66 24 -78 -10 -33 -27 -64 -34 -64 -4 0 -25
18 -47 40 -47 48 -68 45 -82 -9 -15 -58 -1 -111 34 -130 44 -24 98 -41 127
-41 28 0 79 -45 73 -63 -7 -18 17 -43 46 -50 29 -7 59 -58 59 -100 0 -14 5
-29 11 -33 6 -3 9 -19 6 -34 -8 -37 2 -68 22 -75 30 -9 46 -51 32 -81 -11 -25
-15 -26 -67 -21 -50 5 -57 4 -61 -14 -3 -10 -12 -19 -19 -19 -8 0 -14 -4 -14
-10 0 -5 -20 -10 -45 -10 -34 0 -47 -5 -55 -20 -6 -11 -21 -20 -34 -20 -13 0
-26 -7 -30 -15 -3 -8 -15 -15 -26 -15 -24 0 -25 -8 -4 -31 21 -24 11 -50 -18
-46 -17 1 -23 -3 -24 -18 -2 -37 -4 -39 -19 -19 -8 10 -15 30 -15 44 0 14 -9
31 -20 38 -11 6 -17 18 -14 26 7 18 52 38 59 26 13 -20 35 -10 35 16 0 23 -3
25 -24 20 -33 -8 -49 14 -36 48 8 21 6 33 -6 51 -10 15 -12 25 -5 25 6 0 13
11 17 25 3 14 12 25 19 25 16 0 26 -35 13 -48 -5 -5 -8 -18 -6 -28 2 -14 13
-18 46 -19 52 -1 58 6 37 42 -14 24 -14 33 -3 68 16 49 45 59 50 18 2 -23 8
-29 36 -31 22 -2 34 1 37 12 17 53 14 50 33 32 21 -18 32 -21 32 -7 0 17 -63
42 -90 36 -21 -5 -27 0 -39 27 -13 30 -15 31 -25 13 -29 -50 -130 -111 -157
-94 -8 5 -20 9 -26 9 -16 0 -17 -46 -3 -55 22 -14 -10 -34 -44 -28 -22 3 -37
0 -44 -8 -64 -78 -68 -80 -84 -62 -21 24 -24 42 -10 76 7 16 12 33 12 38 0 5
4 9 9 9 15 0 71 57 71 73 0 16 64 108 100 144 20 20 21 25 9 53 -8 16 -17 30
-22 30 -4 0 -21 29 -38 65 -17 35 -40 67 -50 70 -19 6 -59 51 -59 66 0 4 11
21 25 37 14 17 25 42 25 57 0 17 12 38 35 59 30 29 35 40 35 78 0 76 -55 107
-150 84 -55 -12 -61 -12 -76 5 -26 29 -61 24 -82 -11 -19 -30 -19 -30 -40 -10
-12 12 -24 39 -28 67 -5 35 -16 57 -38 79 -31 31 -34 32 -116 30 -78 -1 -85
-3 -96 -24 -19 -39 -33 -47 -81 -47 l-46 0 -63 -105 c-35 -58 -64 -113 -64
-123 0 -56 56 -91 130 -81 45 6 51 4 80 -24 27 -28 41 -78 25 -94 -3 -3 -26 0
-51 5 -42 10 -46 9 -61 -14 -9 -13 -32 -39 -50 -58 -68 -68 -75 -105 -31 -143
19 -17 21 -17 43 0 13 9 28 27 34 40 18 39 98 23 120 -24 6 -13 14 -24 19 -24
4 0 32 16 62 36 48 30 61 35 100 31 56 -6 80 -34 80 -91 0 -71 -8 -86 -44 -86
-21 0 -50 -13 -82 -35 -27 -19 -56 -35 -64 -35 -25 -1 -57 -33 -74 -73 -8 -20
-21 -36 -28 -35 -7 2 -14 -7 -16 -20 -2 -16 -8 -22 -18 -18 -9 3 -14 -1 -14
-14 0 -10 -4 -22 -10 -25 -5 -3 -10 -17 -10 -30 0 -13 -5 -27 -10 -30 -6 -3
-10 -15 -10 -26 0 -12 -7 -19 -20 -19 -11 0 -20 -7 -20 -15 0 -29 -29 -14 -63
33 -30 41 -35 57 -40 124 -7 79 -21 123 -42 132 -7 2 -30 0 -51 -5 -62 -14
-84 -11 -84 9 0 20 -29 52 -47 52 -6 0 -16 -7 -23 -15 -11 -13 -19 -9 -56 30
-47 48 -90 59 -114 30 -19 -23 -49 -18 -87 15 -18 17 -38 30 -43 30 -10 0 -94
-39 -150 -70 -19 -11 -48 -22 -63 -25 -35 -7 -99 -69 -114 -110 -38 -107 -41
-179 -11 -232 29 -51 45 -63 89 -63 21 0 60 -13 94 -31 l58 -31 40 18 c57 26
103 20 78 -10 -7 -8 -11 -27 -9 -43 3 -25 8 -29 53 -37 28 -5 54 -15 58 -22 4
-8 23 -14 41 -14 24 0 36 6 46 24 14 27 48 40 77 29 10 -3 35 -18 55 -32 27
-19 38 -33 38 -53 0 -35 -45 -88 -75 -88 -33 0 -125 -77 -132 -110 -4 -21 -10
-26 -24 -23 -14 4 -19 15 -21 47 -2 59 -2 68 7 99 10 36 -10 36 -56 -3 -30
-24 -37 -38 -42 -77 -7 -61 -36 -87 -89 -80 -21 3 -49 14 -64 26 -15 11 -44
26 -65 31 -26 7 -50 25 -76 57 -34 42 -38 51 -36 97 4 88 -44 139 -113 122
-14 -4 -49 -29 -78 -55 -28 -27 -65 -56 -83 -65 -47 -23 -61 -50 -56 -99 5
-41 3 -44 -36 -70 l-42 -28 6 -62 c3 -34 8 -79 10 -99 6 -41 -7 -50 -62 -46
-22 1 -42 -8 -75 -35 -25 -20 -50 -37 -55 -37 -19 0 -113 -109 -113 -130 0
-11 -9 -38 -20 -60 -19 -37 -19 -43 -5 -122 32 -185 80 -223 190 -150 34 23
49 26 103 24 35 -1 73 3 84 9 27 15 76 14 137 -2 54 -13 71 -34 75 -87 3 -40
9 -45 47 -44 44 1 69 -24 62 -62 -3 -17 -11 -38 -18 -46 -6 -8 -12 -30 -14
-49 l-2 -34 33 27 c18 14 44 32 57 38 25 13 33 6 84 -67 16 -23 24 -25 65 -22
63 5 92 21 85 47 -4 14 0 20 11 20 9 0 16 4 16 9 0 17 62 25 71 10 15 -23 10
-70 -10 -103 -18 -30 -22 -80 -8 -102 16 -27 15 -64 -3 -77 -13 -9 -25 -38
-34 -82 -8 -39 -22 -74 -31 -81 -24 -18 -45 -85 -34 -106 5 -9 9 -26 9 -38 0
-25 -42 -44 -68 -31 -9 5 -25 12 -35 15 -10 3 -17 15 -17 29 0 31 -33 73 -62
81 -13 3 -45 33 -73 66 -95 116 -88 111 -158 109 -34 0 -95 7 -136 16 -64 15
-75 21 -90 48 -25 48 -61 77 -93 77 -54 0 -81 -24 -128 -116 -42 -81 -45 -94
-48 -173 -2 -47 -3 -98 -4 -112 -1 -14 11 -46 26 -72 27 -46 29 -47 78 -47 39
0 59 -7 96 -32 34 -24 56 -31 82 -29 27 2 41 -4 58 -22 21 -23 22 -26 7 -41
-23 -22 -39 -20 -75 10 -28 24 -33 26 -57 13 -57 -31 -69 -59 -76 -175 -5 -91
-4 -111 10 -126 9 -10 18 -41 21 -70 3 -41 11 -60 34 -84 32 -34 47 -105 48
-222 0 -72 12 -102 40 -102 23 0 40 -28 40 -65 0 -28 20 -50 95 -101 90 -61
133 -77 165 -64 33 14 60 50 60 79 0 11 11 33 24 48 23 26 26 27 41 12 9 -9
21 -36 26 -60 7 -31 21 -52 49 -77 40 -33 40 -33 25 -68 -8 -19 -26 -45 -41
-58 l-28 -23 18 -84 c19 -91 41 -149 54 -149 5 0 26 -13 47 -30 31 -25 47 -30
90 -30 40 0 56 -5 71 -21 43 -49 147 -75 177 -44 31 31 40 82 23 132 -21 61
-20 75 4 106 29 37 123 86 154 80 13 -3 39 -20 56 -39 18 -20 40 -34 54 -34
24 0 76 -44 76 -65 0 -7 -9 -24 -21 -39 -11 -15 -24 -39 -28 -54 -7 -26 -10
-27 -67 -24 -54 2 -62 0 -97 -30 -37 -31 -38 -36 -31 -73 5 -29 20 -52 56 -87
37 -35 48 -53 48 -76 0 -38 22 -46 90 -37 46 6 50 5 61 -18 15 -32 6 -67 -25
-104 -37 -44 -41 -73 -14 -110 98 -135 132 -174 151 -169 23 6 51 -7 84 -36
21 -19 27 -20 117 -9 52 6 101 13 109 17 26 9 38 47 41 131 7 148 36 186 113
149 46 -22 163 -125 163 -144 0 -8 -23 -39 -50 -68 -74 -78 -69 -101 43 -192
88 -72 135 -98 150 -83 15 15 88 13 110 -3 16 -12 22 -12 45 0 15 8 42 17 60
20 28 6 37 14 57 59 21 49 23 63 20 211 -2 88 -7 184 -11 214 -7 64 4 81 48
73 18 -3 30 -14 37 -34 11 -33 47 -40 59 -11 17 39 55 93 61 85 26 -36 94 -53
133 -32 25 14 30 9 31 -35 1 -26 -7 -42 -32 -68 -41 -41 -91 -142 -91 -185 0
-44 -15 -80 -50 -120 -54 -61 -35 -111 50 -128 19 -4 51 -21 72 -38 37 -29 39
-30 78 -17 35 12 45 11 76 -3 47 -23 59 -22 102 11 20 16 55 34 77 40 53 15
95 55 95 90 -1 34 -19 56 -99 122 -69 58 -66 46 -45 156 5 28 2 34 -38 61 -32
21 -45 38 -52 66 -5 20 -15 37 -23 37 -22 0 -14 20 12 30 29 11 59 71 50 100
-8 24 11 60 30 60 11 0 15 11 15 38 0 21 5 43 12 50 34 34 -75 34 -111 0 -26
-24 -55 -20 -58 7 -9 94 -16 122 -37 131 -18 8 -21 16 -18 55 3 35 0 48 -13
53 -12 4 -14 14 -9 42 5 26 3 35 -4 30 -6 -4 -21 7 -33 24 -13 16 -31 30 -41
30 -10 0 -30 7 -44 17 -17 10 -48 16 -90 17 -49 1 -69 5 -78 18 -6 9 -23 18
-36 20 -18 2 -24 8 -22 23 5 35 3 95 -2 113 -5 15 1 18 34 19 22 1 42 -2 45
-7 3 -5 12 -7 20 -4 7 3 24 -5 36 -17 l22 -22 19 23 c10 12 18 30 18 40 0 45
24 66 35 31 4 -12 12 -18 21 -14 24 9 19 -88 -6 -120 -20 -26 -20 -26 -1 -36
24 -13 51 -14 51 -2 0 5 15 15 33 22 17 7 35 14 40 17 4 2 7 -3 7 -10 0 -17
70 -12 75 6 2 6 6 23 9 39 9 37 26 34 26 -4 0 -17 9 -42 20 -56 26 -33 25 -51
-2 -74 -11 -11 -18 -22 -15 -25 3 -4 17 5 30 19 16 18 30 24 45 20 26 -6 28
-23 6 -65 -12 -23 -13 -33 -4 -42 8 -8 15 -7 24 7 7 9 20 17 29 17 19 0 41 36
33 55 -2 7 4 15 15 18 10 3 23 17 29 31 8 23 13 25 30 16 11 -6 20 -16 20 -23
0 -8 4 -7 10 3 8 12 11 12 28 -3 18 -16 19 -16 32 8 12 22 77 75 93 75 9 0 4
-31 -8 -50 -17 -27 -13 -38 14 -43 27 -6 28 -8 27 -73 -1 -56 -4 -69 -21 -78
-28 -15 -33 -24 -45 -81 -10 -44 -9 -51 9 -65 27 -21 35 -54 17 -69 -8 -7 -40
-14 -71 -15 -31 -2 -61 -8 -68 -15 -17 -17 12 -95 38 -99 56 -8 63 -13 79 -52
9 -22 16 -60 16 -85 0 -39 4 -47 38 -72 67 -51 68 -68 6 -128 -41 -41 -45 -48
-42 -86 4 -54 34 -77 108 -86 30 -3 65 -13 77 -20 28 -19 129 -8 137 14 8 20
58 8 108 -25 33 -21 42 -23 64 -13 20 9 31 8 55 -5 33 -17 53 -9 64 27 10 30
38 40 75 27 30 -10 35 -9 51 13 10 13 31 46 45 73 14 28 44 73 65 100 21 28
57 75 79 104 23 28 44 52 49 52 4 0 18 18 30 41 40 70 14 101 -130 153 -55 20
-72 37 -89 91 -15 47 -27 65 -46 65 -10 0 -14 -15 -14 -55 0 -42 -5 -60 -20
-75 -29 -29 -67 -25 -100 10 -35 38 -56 38 -118 -1 -32 -20 -67 -32 -104 -36
-52 -5 -55 -4 -81 27 -39 46 -59 87 -47 95 6 4 8 16 4 27 -5 17 -3 20 11 14
12 -4 18 0 22 14 3 11 9 20 14 20 5 0 9 7 9 16 0 13 7 15 35 10 19 -4 42 -3
52 2 62 31 93 42 135 48 53 7 60 13 78 68 13 39 13 40 -28 78 -23 21 -50 38
-62 38 -11 0 -20 5 -20 10 0 6 -6 10 -13 10 -8 0 -20 11 -27 25 -7 13 -16 22
-20 20 -4 -2 -13 21 -19 51 -10 41 -18 57 -35 64 -30 11 -42 28 -55 76 -6 22
-22 50 -36 62 -14 12 -25 29 -25 37 0 8 -7 15 -15 15 -9 0 -18 7 -21 15 -4 10
-19 15 -43 15 -20 0 -42 5 -48 11 -7 7 -17 8 -29 1 -25 -13 -44 -5 -44 19 0
10 -7 19 -15 19 -9 0 -15 10 -16 23 l-1 22 -6 -23 c-10 -35 -83 -104 -102 -96
-8 3 -34 8 -57 11 -40 5 -41 6 -48 51 -5 34 -2 54 12 83 19 40 36 49 93 49 32
0 35 2 35 29 0 17 -6 36 -12 42 -19 19 -16 31 6 24 11 -3 21 0 24 9 3 8 -2 16
-14 19 -17 5 -19 9 -10 25 12 22 6 32 -21 32 -22 0 -24 16 -3 24 8 3 15 14 15
24 0 10 5 23 12 30 9 9 7 13 -5 18 -18 7 -24 64 -7 64 6 0 10 -6 10 -12 1 -14
34 -58 44 -58 3 0 6 8 6 17 0 14 4 13 23 -6 27 -25 48 -21 72 15 17 27 35 32
35 9 0 -8 -4 -15 -10 -15 -5 0 -10 -9 -10 -20 0 -11 -7 -20 -15 -20 -9 0 -15
-6 -14 -12 3 -19 -30 -88 -41 -88 -6 0 -8 11 -4 24 5 21 3 24 -15 19 -16 -4
-21 -13 -21 -39 0 -32 7 -39 37 -35 7 1 15 -18 18 -44 7 -43 17 -56 30 -36 3
5 1 12 -5 16 -5 3 -10 16 -10 28 l1 22 18 -23 c27 -31 55 -28 111 14 8 6 22
11 30 11 8 1 23 4 33 8 24 10 22 -11 -3 -32 -24 -21 -26 -33 -5 -33 8 0 15 4
15 10 0 6 18 7 45 3 43 -5 45 -5 45 19 0 18 7 27 23 32 31 8 39 7 33 -3 -3 -4
1 -17 10 -27 14 -18 15 -18 9 4 -5 16 -2 22 9 22 9 0 26 10 37 21 15 15 24 18
29 10 4 -8 32 -11 79 -9 64 2 75 5 92 26 16 20 19 22 19 7 0 -14 3 -15 15 -5
13 10 15 9 15 -9 0 -33 -1 -36 -13 -33 -14 4 -26 -18 -20 -35 8 -21 39 -15 51
11 10 22 16 24 72 23 53 -2 64 1 80 21 10 12 22 22 27 22 4 -1 32 -20 62 -45
44 -35 58 -42 77 -35 28 11 34 5 34 -36 0 -18 5 -45 12 -59 9 -21 8 -32 -5
-60 -17 -36 -97 -95 -128 -95 -10 0 -31 -12 -48 -26 -28 -23 -31 -31 -31 -83
0 -65 -19 -101 -55 -101 -57 0 -61 20 -21 98 20 38 14 52 -20 52 -13 0 -33 9
-44 20 -29 29 -41 25 -28 -10 5 -17 7 -41 4 -54 -4 -16 2 -32 19 -52 27 -31
30 -40 16 -48 -5 -3 -9 -30 -10 -60 0 -29 -7 -73 -16 -97 -22 -63 -22 -63 2
-67 17 -2 28 7 48 39 33 52 89 105 151 143 64 40 80 29 99 -66 4 -21 18 -34
63 -55 54 -26 57 -31 65 -73 5 -25 9 -77 11 -116 1 -48 8 -81 20 -99 17 -25
21 -27 71 -20 41 5 60 2 86 -12 69 -37 221 -15 293 42 17 14 44 36 60 48 25
20 29 31 32 89 2 36 13 85 24 109 26 58 26 119 0 152 -11 14 -42 33 -69 42
-28 9 -77 34 -111 56 -33 21 -65 39 -70 39 -4 0 -34 23 -64 51 -43 39 -55 56
-50 71 4 14 0 21 -15 25 -31 8 -25 20 12 27 34 6 57 36 57 74 0 10 19 27 46
41 25 14 51 36 57 50 7 15 17 31 23 36 18 15 25 61 15 88 -10 26 -55 47 -101
47 -21 0 -30 7 -40 30 -14 34 -27 47 -55 52 -11 1 -30 20 -43 41 -22 35 -26
37 -77 37 -30 0 -57 5 -60 10 -4 6 -14 10 -23 9 -23 -3 -91 12 -97 21 -2 4 4
15 15 25 14 13 20 31 20 60 0 34 -5 45 -30 63 -16 12 -33 22 -37 22 -5 0 -14
9 -21 21 -13 20 -14 20 -33 3 -15 -13 -22 -15 -31 -6 -7 7 -21 12 -31 12 -10
0 -21 9 -24 20 -6 24 -21 26 -29 5 -4 -8 -17 -15 -31 -15 -21 0 -24 -4 -21
-27 2 -18 -2 -28 -9 -27 -7 1 -20 2 -28 3 -8 0 -15 10 -15 20 0 27 -15 34 -31
15 -7 -9 -23 -20 -36 -25 -14 -5 -23 -17 -23 -29 0 -17 -4 -19 -25 -14 -14 3
-25 3 -25 -1 0 -7 26 -68 41 -97 5 -10 9 -25 9 -33 0 -11 6 -14 25 -9 18 4 25
2 25 -9 0 -8 -11 -17 -25 -19 -17 -4 -25 -1 -25 8 0 7 -9 18 -21 25 -14 7 -19
17 -16 30 6 23 -16 38 -49 31 -32 -6 -28 -38 4 -35 27 3 27 -6 2 -63 -26 -56
-39 -56 -32 1 4 44 -3 56 -24 35 -7 -7 -15 7 -24 45 -14 58 -23 65 -85 69 -17
1 -25 7 -25 20 0 15 3 16 15 6 8 -7 15 -9 15 -5 0 4 7 2 15 -5 22 -18 31 -5
11 15 -9 9 -16 23 -16 31 0 8 -4 14 -10 14 -5 0 -10 6 -10 14 0 9 7 12 20 9
11 -3 20 0 20 6 0 6 7 11 15 11 8 0 15 9 15 19 0 10 7 21 15 25 8 3 15 13 15
22 0 12 -6 15 -22 10 -13 -3 -26 -6 -30 -6 -5 0 -8 -8 -8 -18 0 -11 -9 -27
-20 -37 -16 -14 -20 -15 -20 -4 0 8 -9 22 -20 32 -22 19 -35 22 -25 8 3 -5 1
-12 -4 -15 -5 -3 -11 3 -14 14 -7 25 -37 26 -37 1 0 -16 -23 -31 -55 -35 -5
-1 -15 -5 -22 -9 -6 -4 -14 -3 -18 2 -8 13 30 32 49 25 10 -4 19 2 25 17 5 13
19 32 30 41 23 20 28 38 9 38 -7 0 -21 -14 -30 -30 -9 -17 -22 -30 -29 -30 -8
0 -8 4 1 15 10 12 9 16 -3 21 -21 8 -40 -5 -33 -22 7 -17 -36 -64 -58 -64 -21
0 -21 16 0 24 9 4 14 13 10 21 -3 9 1 18 9 21 23 9 19 37 -5 31 -32 -8 -23 10
10 22 30 10 41 31 18 31 -8 0 -14 16 -16 40 -1 22 2 40 8 40 5 0 11 -12 11
-27 2 -24 2 -25 6 -5 4 21 33 32 33 12 0 -5 -5 -10 -11 -10 -14 0 -7 -42 8
-47 9 -3 25 23 28 47 0 3 13 17 28 32 15 15 27 32 27 38 0 17 -29 11 -52 -12
-16 -16 -33 -22 -59 -21 -30 2 -38 -3 -47 -23 -7 -13 -16 -24 -22 -24 -7 0 -8
6 0 19 14 27 13 31 -9 31 -10 0 -25 10 -33 22 -14 20 -14 19 -10 -16 3 -29 11
-42 32 -54 31 -18 55 -51 44 -60 -4 -4 -9 -1 -11 6 -3 6 -13 12 -24 12 -10 0
-19 7 -19 15 0 18 -21 20 -38 3 -9 -9 -12 -8 -12 4 0 9 5 20 10 23 6 3 10 11
10 16 0 6 -5 7 -11 3 -9 -5 -10 1 -5 20 5 20 3 26 -5 21 -8 -5 -9 -1 -4 14 4
14 1 31 -9 46 -23 36 -20 55 16 92 26 27 30 36 19 42 -20 13 25 57 66 64 29 6
34 3 39 -19 4 -15 1 -36 -7 -51 -12 -23 -11 -27 14 -45 20 -15 27 -28 27 -54
0 -19 5 -34 10 -34 6 0 10 6 10 14 0 8 9 17 19 21 39 12 34 75 -5 75 -8 0 -14
5 -14 10 0 6 7 10 15 10 8 0 15 -4 15 -9 0 -12 62 -23 73 -12 5 5 -2 17 -17
29 -28 21 -33 51 -15 83 8 16 7 26 -6 46 -22 33 -11 43 16 14 12 -12 27 -20
35 -17 9 4 14 -2 14 -15 0 -25 25 -35 45 -19 13 10 15 8 15 -13 0 -13 7 -30
15 -37 8 -7 15 -20 16 -29 0 -12 2 -12 8 3 5 14 10 16 15 8 9 -15 -1 -32 -20
-32 -19 0 -18 -26 2 -34 23 -9 24 -8 24 16 0 17 3 19 12 10 7 -7 20 -12 30
-12 10 0 18 -6 18 -14 0 -7 7 -19 15 -26 8 -7 15 -16 15 -20 0 -9 -47 -30 -69
-30 -9 0 -27 -13 -38 -29 -19 -25 -20 -30 -6 -44 14 -14 13 -16 -6 -27 -12 -6
-34 -10 -49 -9 -32 2 -72 -10 -72 -22 0 -5 5 -9 10 -9 6 0 10 -7 10 -15 0 -8
4 -15 10 -15 20 0 66 26 83 47 10 13 27 23 38 23 13 0 19 7 19 23 0 31 72 66
96 46 23 -19 40 4 18 25 -13 13 -14 20 -5 29 8 8 18 5 37 -14 23 -24 24 -27
10 -42 -24 -23 -20 -47 7 -47 13 0 28 5 35 12 9 9 17 7 35 -10 13 -12 28 -22
34 -22 6 0 14 -25 18 -56 6 -48 4 -59 -14 -78 -14 -14 -17 -26 -11 -36 5 -8 6
-28 4 -45 l-6 -30 30 31 c28 30 33 31 88 27 109 -9 109 -9 105 7 -11 41 -6 55
19 56 14 1 32 4 41 8 22 10 49 -19 49 -52 0 -17 14 -40 41 -68 l42 -43 53 27
53 27 0 69 1 69 -82 -6 c-51 -4 -75 -3 -63 3 11 5 40 9 65 10 25 0 63 7 85 15
22 8 41 15 42 15 1 0 0 -7 -3 -15 -4 -8 -14 -16 -23 -16 -9 -1 -2 -4 14 -8 41
-10 55 -3 55 24 0 15 -8 26 -21 30 -11 4 -27 21 -34 38 -11 27 -11 34 3 56 12
18 13 26 4 29 -18 6 -14 20 7 27 29 9 34 36 16 89 -9 26 -14 55 -12 64 3 11 5
7 6 -8 2 -39 21 -53 43 -33 24 21 24 100 1 142 -25 43 -7 53 82 48 95 -6 171
-45 194 -101 15 -34 23 -41 66 -51 78 -20 113 2 145 88 7 21 16 27 39 27 33 0
49 16 32 33 -15 15 -14 42 4 57 10 9 14 28 12 67 -3 75 24 99 120 108 94 9
129 22 153 55 17 24 18 31 7 42 -17 16 -11 38 16 60 21 16 21 16 -12 47 -26
24 -32 36 -27 54 21 74 21 75 -34 132 -48 52 -51 58 -45 93 3 21 1 67 -4 102
-9 58 -15 69 -51 100 -22 19 -76 68 -120 109 -84 79 -89 80 -162 52 -27 -10
-28 -13 -28 -84 0 -105 -6 -110 -126 -118 -90 -6 -99 -8 -116 -33 -13 -17 -29
-26 -48 -26 -24 0 -30 6 -41 37 -7 21 -11 55 -11 76 1 28 -3 39 -16 44 -23 9
-51 44 -52 65 0 37 73 57 86 24 5 -14 252 -12 299 2 25 7 29 13 27 35 -2 18 7
37 33 66 34 37 37 44 29 78 -4 21 -6 42 -5 47 1 5 -7 18 -18 30 -11 12 -27 41
-36 65 -8 24 -33 63 -54 86 -21 23 -44 58 -51 79 -6 20 -22 56 -35 79 -13 23
-23 57 -23 76 1 19 -3 37 -8 38 -58 23 -79 41 -92 81 -15 46 -28 56 -84 66
-24 4 -44 17 -61 39 -38 50 -96 171 -103 216 -7 47 -38 101 -57 101 -7 0 -26
13 -41 29 -18 19 -49 34 -91 46 -59 16 -69 16 -127 1 -34 -9 -68 -22 -75 -29
-8 -7 -17 -37 -22 -65 -12 -80 -30 -93 -120 -91 -71 1 -164 -10 -203 -26 -11
-4 -20 0 -28 15 -11 21 -87 60 -117 60 -8 0 -28 -14 -44 -31 -35 -37 -39 -92
-12 -177 15 -48 16 -55 3 -66 -25 -19 -49 -62 -61 -110 -9 -38 -14 -44 -25
-35 -8 6 -14 27 -14 46 0 51 -16 73 -51 73 -22 0 -32 -6 -41 -25 -6 -15 -25
-29 -47 -36 -40 -12 -70 -44 -71 -72 0 -11 -6 -17 -12 -14 -9 3 -12 26 -11 77
3 86 -8 100 -49 65 -24 -21 -31 -22 -63 -12 -30 9 -38 8 -52 -5 -15 -15 -14
-21 10 -66 14 -27 24 -58 21 -68 -3 -13 3 -23 20 -30 22 -10 27 -9 41 12 9 14
21 21 30 18 8 -4 15 -1 15 6 0 10 3 10 15 0 21 -17 19 -25 -9 -40 -24 -12 -24
-14 -8 -36 9 -13 23 -24 30 -24 6 0 12 -7 12 -15 0 -8 20 -34 44 -57 23 -24
45 -50 48 -58 8 -23 21 -4 21 30 0 35 -1 35 38 14 24 -12 30 -20 25 -37 -7
-28 10 -47 44 -47 20 0 31 -7 41 -27 10 -19 22 -28 39 -28 17 0 26 -7 30 -25
4 -18 14 -26 35 -30 18 -3 30 -11 30 -20 0 -8 -6 -14 -13 -12 -7 1 -22 -8 -33
-20 l-19 -23 6 28 c4 19 2 27 -7 27 -7 0 -23 10 -35 21 -16 15 -28 19 -41 13
-25 -11 -85 -13 -103 -3 -8 4 -15 20 -15 36 0 28 -19 40 -41 25 -7 -4 -13 -32
-15 -62 l-4 -55 40 -5 c39 -5 40 -6 41 -45 1 -21 6 -41 13 -43 16 -5 14 -77
-4 -92 -8 -7 -23 -9 -32 -5 -17 6 -17 7 0 20 11 8 17 23 15 37 -2 18 -10 24
-37 26 -49 5 -84 -6 -77 -23 3 -8 1 -15 -4 -15 -6 0 -10 11 -10 25 0 18 -7 28
-23 34 -29 11 -57 38 -57 55 0 7 12 13 30 13 25 0 29 -3 24 -22 -6 -26 28 -61
48 -49 7 5 15 9 18 9 28 4 50 20 50 36 0 20 -15 26 -25 9 -10 -15 -25 -12 -32
8 -4 9 -14 22 -22 29 -19 15 -67 17 -76 3 -3 -5 -18 -9 -32 -8 -33 3 -62 62
-44 90 16 26 14 28 -23 28 -59 0 -94 -18 -106 -56 -8 -22 -17 -34 -27 -32 -9
2 -18 -2 -20 -8 -2 -7 4 -11 13 -10 9 0 19 -5 22 -13 3 -10 -1 -12 -16 -9 -24
7 -33 -10 -25 -41 4 -15 1 -21 -10 -21 -8 0 -17 5 -19 11 -3 8 -11 8 -28 -2
-34 -19 -41 -30 -35 -56 5 -23 -8 -32 -20 -13 -12 19 -23 10 -29 -25 -5 -24
-11 -33 -21 -28 -10 3 -15 -1 -15 -12 0 -9 -4 -13 -10 -10 -19 12 -10 41 20
65 16 14 29 33 30 42 0 9 5 20 10 23 6 3 10 19 10 36 0 29 13 39 25 19 12 -19
33 -10 45 20 15 35 8 49 -15 30 -20 -17 -32 -5 -15 15 7 8 9 15 6 15 -4 0 -2
9 4 21 7 11 17 19 23 16 13 -5 15 52 2 72 -4 7 -2 18 4 24 9 9 14 8 21 -3 5
-8 6 -18 4 -22 -3 -4 -1 -8 5 -8 16 0 28 32 26 70 -2 33 -4 35 -32 32 -26 -3
-32 1 -41 27 -11 32 -45 48 -82 38 -39 -10 -19 10 23 24 44 14 67 31 67 48 0
23 20 10 26 -16 12 -56 13 -58 32 -40 15 15 15 20 2 41 -8 13 -37 40 -63 60
-45 35 -75 41 -103 24 -6 -4 -20 -4 -32 -1 -23 5 -26 32 -9 61 10 15 -5 16
-21 0 -9 -9 -12 -9 -12 0 0 7 11 17 24 22 25 9 33 28 51 118 6 30 9 32 50 32
46 0 65 13 42 27 -20 12 -28 52 -14 74 10 15 5 23 -28 53 -38 34 -42 35 -95
30 -30 -4 -56 -8 -58 -9 -4 -3 57 -117 69 -130 5 -5 9 -13 9 -19 0 -14 -46 50
-60 85 -7 16 -19 29 -26 29 -18 0 -36 47 -29 71 8 23 -20 37 -44 23 -17 -11
-104 -10 -121 1 -16 10 -11 34 10 45 11 6 46 9 78 8 62 -2 102 14 120 49 20
38 23 120 6 161 -25 65 -17 93 36 119 91 44 115 26 116 -86 1 -70 9 -166 19
-217 3 -14 23 -30 64 -48 32 -14 63 -26 70 -26 6 0 18 -11 27 -25 15 -23 16
-60 3 -104 -2 -8 7 -17 25 -22 15 -4 36 -14 45 -22 19 -16 88 -37 122 -37 13
0 43 8 66 17 35 15 43 23 48 53 4 19 16 54 28 78 19 40 20 46 7 70 -10 17 -36
34 -75 50 -80 31 -97 50 -103 110 -4 44 -1 52 27 85 18 20 52 48 76 64 35 22
65 62 65 87 0 1 -41 44 -90 95 -81 83 -94 92 -118 86 -21 -4 -38 1 -67 21 -26
17 -47 24 -64 21 -128 -24 -187 -41 -230 -64 -60 -33 -71 -29 -116 40 -16 25
-40 50 -52 56 -42 19 -87 21 -116 5z m1922 -1007 c16 -20 24 -71 17 -109 -3
-20 -25 -54 -50 -81 -24 -26 -46 -62 -50 -78 -10 -53 -74 -156 -101 -163 -25
-6 -55 1 -55 14 0 4 -12 20 -26 36 -17 19 -24 23 -20 11 3 -10 6 -25 6 -32 0
-8 11 -24 24 -37 30 -28 116 -157 116 -173 0 -19 38 -49 83 -66 34 -12 47 -25
67 -65 14 -27 35 -66 48 -86 12 -19 22 -41 22 -48 0 -7 9 -31 19 -54 11 -23
36 -77 56 -121 21 -44 44 -101 51 -126 8 -26 21 -52 29 -59 8 -7 15 -16 15
-21 0 -5 11 -27 25 -49 21 -33 31 -40 58 -40 70 0 97 -56 62 -124 -8 -15 -15
-47 -15 -70 0 -36 -3 -42 -22 -43 -12 -1 -27 2 -34 8 -7 6 -29 1 -65 -13 -55
-23 -95 -28 -117 -14 -15 9 -16 53 -1 58 7 2 7 12 0 31 -11 28 -54 52 -78 43
-7 -3 -13 1 -13 9 0 10 10 15 28 15 44 0 58 14 44 44 -11 26 -32 36 -32 16 0
-5 -4 -10 -10 -10 -5 0 -10 13 -10 29 0 17 -4 33 -10 36 -5 3 -10 17 -10 31 0
13 5 24 10 24 6 0 10 -5 10 -11 0 -5 4 -7 10 -4 11 7 3 58 -17 103 -8 18 -12
40 -10 50 3 13 6 11 15 -10 6 -16 14 -28 16 -28 5 0 -1 102 -9 136 -7 31 -45
45 -82 29 -17 -7 -39 -12 -49 -12 -12 1 -20 -7 -24 -23 -7 -34 -21 -55 -46
-68 -16 -9 -22 -7 -32 9 -15 23 -65 25 -106 4 -16 -8 -54 -15 -87 -15 -54 0
-59 -2 -65 -25 -9 -36 -29 -25 -30 16 -1 54 -3 57 -26 61 -28 4 -35 32 -14 54
9 8 16 28 16 44 0 32 31 60 66 60 30 0 33 6 21 51 -7 28 -6 44 1 51 13 13 52
1 52 -16 0 -13 68 -15 88 -2 6 3 1 30 -13 68 -17 47 -28 64 -44 66 -16 3 -21
-2 -21 -17 0 -14 -6 -21 -19 -21 -10 0 -41 -15 -69 -33 -65 -44 -81 -50 -88
-32 -4 9 -19 15 -40 15 -33 0 -34 -1 -34 -42 0 -48 -22 -78 -57 -78 -19 0 -23
5 -22 28 0 15 4 36 8 47 5 13 0 34 -16 64 -28 53 -41 63 -64 50 -19 -10 -32
11 -23 36 7 16 24 21 24 6 0 -17 33 -21 50 -6 9 8 31 15 49 15 26 0 36 -7 52
-35 18 -30 26 -35 60 -35 21 0 39 5 39 11 0 6 10 25 23 42 12 18 24 42 25 55
3 17 -2 22 -21 22 -27 0 -117 68 -117 88 0 7 -11 17 -24 22 -14 5 -26 19 -28
32 -3 21 -20 33 -81 57 -25 10 -27 13 -13 26 8 9 38 23 65 32 45 14 51 19 51
43 0 36 35 79 78 97 20 8 44 26 54 39 23 28 40 32 31 7 -6 -15 -4 -16 9 -5 13
10 17 10 21 -2 10 -26 86 -58 121 -52 37 7 109 84 145 155 30 58 103 90 130
58z m-3007 -263 c10 -10 32 -17 49 -18 39 -1 81 -48 61 -68 -11 -11 -17 -48
-8 -48 16 0 36 14 36 26 0 8 14 17 31 21 20 4 34 14 40 29 4 13 14 24 21 24 9
0 9 -3 1 -11 -8 -8 -7 -16 6 -29 35 -39 39 -48 34 -74 -4 -20 -8 -24 -19 -15
-17 14 -104 5 -115 -13 -12 -18 -11 -28 1 -28 6 0 10 5 10 10 0 6 5 10 11 10
6 0 -1 -14 -15 -31 -14 -17 -26 -38 -26 -48 0 -9 -7 -26 -16 -37 -15 -19 -16
-19 -9 1 17 47 16 51 -11 65 -21 12 -28 12 -31 3 -3 -7 -11 -13 -19 -13 -34 0
-104 -55 -104 -81 0 -21 -16 -33 -25 -19 -9 15 -25 12 -25 -6 0 -8 13 -26 29
-40 34 -28 59 -90 43 -106 -7 -7 -20 -4 -40 11 -37 26 -54 26 -77 1 -10 -11
-13 -20 -7 -20 7 0 12 -7 12 -15 0 -8 -4 -15 -9 -15 -5 0 -23 -13 -40 -29 -19
-18 -40 -28 -51 -26 -13 3 -26 -5 -36 -21 -20 -29 -13 -40 14 -25 33 17 42 13
42 -19 0 -24 6 -33 28 -41 l27 -11 -25 -13 c-14 -8 -35 -14 -47 -15 -27 0 -29
-17 -6 -49 16 -24 16 -24 -13 -18 -16 3 -37 1 -48 -5 -13 -7 -25 -6 -42 2 -18
10 -26 10 -38 1 -11 -9 -20 -10 -35 -1 -25 13 -27 33 -5 51 10 8 14 22 10 41
-3 17 0 33 10 43 18 18 20 18 43 5 17 -8 19 -4 20 42 1 46 -3 56 -28 78 -26
24 -28 31 -24 77 3 31 1 53 -6 57 -12 8 -14 48 -5 84 5 19 13 23 48 23 122 0
131 2 133 31 2 21 -5 31 -33 48 -32 18 -34 23 -23 37 8 9 14 19 14 22 0 3 17
6 38 6 20 0 37 4 37 9 0 5 3 6 6 3 10 -10 44 12 44 28 0 8 6 15 13 16 6 0 2 4
-10 9 -13 5 -23 14 -23 20 0 13 33 13 47 -1 18 -18 50 7 58 43 11 50 42 62 77
32z m3258 -203 c18 -35 11 -52 -55 -120 -36 -37 -65 -75 -65 -85 0 -9 -11 -33
-25 -53 l-24 -37 -46 48 c-50 53 -50 54 -33 91 8 19 25 29 64 41 59 17 69 26
79 71 12 56 82 85 105 44z m-2350 -226 c0 -8 7 -15 15 -15 8 0 23 -9 32 -20
18 -20 35 -27 31 -12 -4 11 61 66 68 59 4 -3 -6 -18 -20 -32 -34 -34 -33 -46
4 -38 19 3 30 1 30 -6 0 -6 -9 -11 -20 -11 -11 0 -20 -4 -20 -10 0 -16 42 -33
82 -33 36 0 37 -1 23 -17 -21 -23 -20 -24 21 -40 20 -8 42 -27 50 -42 16 -32
19 -98 3 -98 -6 0 -8 8 -5 18 3 9 1 24 -4 32 -8 13 -10 13 -10 -1 0 -9 -7 -31
-16 -49 -15 -28 -20 -32 -48 -27 -17 3 -39 8 -48 12 -15 6 -17 3 -12 -23 4
-21 2 -31 -10 -35 -23 -9 -21 -47 3 -47 11 0 22 -4 25 -9 8 -12 -49 -34 -85
-34 -28 0 -40 -19 -19 -32 16 -10 12 -22 -10 -28 -11 -3 -20 -10 -20 -16 0
-15 27 -14 34 2 3 9 9 7 19 -5 8 -10 18 -18 22 -18 5 0 17 -8 27 -17 16 -15
21 -15 28 -3 10 16 -5 40 -24 40 -6 0 -17 9 -24 20 -11 18 -9 21 13 30 34 13
35 13 28 -6 -7 -19 31 -57 72 -71 19 -6 29 -17 30 -31 3 -35 19 -46 39 -27 19
19 22 59 3 52 -6 -2 -18 2 -25 9 -10 12 -10 14 3 14 8 0 15 6 15 14 0 8 6 16
12 18 7 3 13 13 13 23 0 27 19 29 30 3 6 -13 17 -22 26 -20 12 2 15 -4 11 -23
-3 -18 -10 -25 -23 -23 -18 3 -21 -5 -12 -30 3 -8 13 -10 25 -6 13 4 18 2 14
-4 -3 -6 -2 -13 4 -17 5 -3 10 -1 10 4 0 6 7 11 15 11 8 0 15 7 15 16 0 14 -2
15 -17 3 -16 -13 -17 -12 -4 4 7 9 19 17 26 17 17 0 28 -31 16 -43 -7 -7 -7
-15 -1 -22 7 -9 5 -16 -5 -25 -22 -18 -18 -32 7 -25 16 6 20 4 15 -8 -7 -19
41 -33 56 -18 8 8 6 11 -6 11 -9 0 -17 7 -17 15 0 9 -6 18 -13 21 -10 3 -12
20 -9 61 4 49 3 55 -12 50 -24 -10 -19 9 9 31 14 11 25 28 25 38 0 13 3 15 11
7 9 -9 8 -22 -4 -51 -20 -50 -8 -75 22 -47 12 10 24 15 29 10 4 -4 -1 -12 -11
-19 -50 -30 -50 -31 -37 -57 7 -13 16 -26 20 -29 4 -3 10 -15 14 -27 7 -23
-17 -44 -59 -48 -11 -1 -23 -3 -27 -4 -5 0 -8 -8 -8 -16 0 -8 -7 -15 -15 -15
-8 0 -15 6 -15 14 0 8 7 16 15 20 8 3 15 13 15 21 0 9 -4 14 -9 11 -5 -3 -11
1 -15 9 -3 8 -10 15 -16 15 -17 0 -24 -31 -9 -41 12 -7 11 -11 -3 -26 -12 -11
-18 -13 -18 -5 0 22 -38 55 -54 49 -11 -4 -16 -1 -16 10 0 13 -3 14 -12 5 -19
-19 -30 -14 -22 10 6 21 5 22 -11 8 -16 -14 -17 -13 -11 6 6 20 -16 78 -34 89
-4 3 -14 3 -22 0 -15 -6 -40 -55 -28 -55 5 0 10 5 12 11 2 5 11 7 21 4 9 -4
14 -11 11 -16 -3 -6 0 -17 7 -25 10 -12 8 -19 -12 -40 -23 -25 -23 -26 -5 -39
10 -8 15 -18 12 -24 -4 -5 -2 -12 4 -16 6 -3 17 -22 25 -42 12 -28 19 -34 36
-30 18 5 20 2 17 -17 -4 -17 1 -22 19 -24 14 -1 23 3 21 11 -3 20 12 55 27 61
22 8 18 26 -5 26 -11 0 -20 -6 -20 -14 0 -7 -7 -19 -15 -26 -13 -10 -15 -9
-15 12 0 13 4 28 10 33 6 7 -8 10 -38 10 -48 0 -49 1 -43 45 0 6 9 10 18 10
15 0 14 -2 -3 -15 -27 -21 1 -19 37 2 l28 17 39 -42 c21 -23 45 -42 52 -42 10
0 10 -3 0 -15 -11 -13 -10 -18 5 -29 14 -10 15 -15 5 -21 -7 -4 -15 -2 -20 4
-5 9 -11 8 -24 -4 -9 -9 -14 -21 -11 -26 7 -11 32 -12 38 -1 2 4 2 1 0 -6 -2
-8 6 -27 18 -43 11 -16 18 -29 15 -29 -18 0 -36 15 -36 30 0 10 -10 20 -22 24
-35 9 -41 7 -35 -9 7 -18 -9 -30 -17 -13 -3 9 -10 7 -23 -7 -10 -11 -36 -30
-58 -42 -26 -13 -39 -26 -37 -37 3 -14 -1 -13 -18 4 -24 24 -48 20 -86 -13
-18 -15 -21 -24 -13 -33 11 -14 4 -34 -11 -34 -5 0 -15 6 -22 13 -27 25 -98
11 -98 -20 0 -11 -6 -10 -24 4 -28 21 -23 37 9 29 17 -4 25 0 33 18 9 20 8 26
-6 32 -9 4 -19 8 -22 9 -3 2 -15 6 -27 10 -29 9 -30 41 -3 48 17 4 20 2 14
-15 -4 -14 -2 -18 5 -14 13 8 60 -24 61 -41 0 -6 7 -18 15 -27 23 -23 60 -2
73 40 11 37 2 50 -25 35 -12 -6 -28 -5 -48 4 -24 11 -26 14 -9 14 11 1 25 -4
32 -11 8 -8 14 -5 23 15 16 35 22 34 38 -8 12 -36 31 -47 31 -20 0 18 17 20
23 3 2 -7 8 -10 12 -6 4 4 2 14 -5 23 -10 12 -10 15 1 15 8 0 20 -10 28 -22
13 -21 14 -21 27 -3 14 19 9 40 -6 30 -5 -3 -15 3 -22 15 -7 11 -18 20 -25 20
-7 0 -13 11 -13 25 0 14 5 25 10 25 6 0 10 6 10 14 0 7 9 16 20 19 23 6 27 27
5 27 -9 0 -16 14 -20 38 -3 20 -10 45 -16 55 -8 15 -4 20 21 28 40 15 39 33
-2 27 -47 -8 -60 -1 -46 22 20 32 1 34 -26 4 -21 -24 -25 -26 -26 -11 0 10 -5
15 -10 12 -7 -4 -8 3 -4 21 l7 28 -32 -23 c-33 -24 -54 -24 -26 -1 8 7 15 19
15 26 0 19 -24 18 -40 -1 -7 -8 -17 -15 -22 -15 -6 0 -5 7 2 15 15 19 9 28
-14 19 -20 -8 -20 -23 1 -46 9 -10 13 -21 9 -26 -4 -4 -21 8 -38 26 -28 32
-30 33 -35 13 -6 -22 -18 -27 -28 -11 -3 6 -15 10 -26 10 -11 0 -26 6 -33 13
-11 11 -10 17 5 35 18 22 34 16 24 -10 -3 -7 5 -19 17 -27 16 -10 23 -10 26
-2 7 20 71 44 102 37 29 -5 43 8 18 17 -10 4 -10 7 0 18 9 9 12 10 12 1 0 -7
7 -12 16 -12 11 0 14 5 10 16 -3 9 -6 20 -6 25 0 5 -7 9 -15 9 -9 0 -15 9 -15
22 0 20 -1 21 -20 3 -23 -20 -26 -14 -8 15 20 31 1 35 -28 6 -27 -27 -47 -29
-25 -2 8 10 9 16 1 21 -18 11 -50 -5 -50 -26 0 -21 -1 -22 -24 -13 -20 8 -21
24 -1 24 8 0 15 5 15 11 0 6 -6 9 -14 6 -18 -7 -9 33 10 49 8 6 17 26 20 45 5
29 3 32 -8 19 -14 -17 -39 -16 -74 2 -17 8 -26 6 -42 -8 -27 -22 -19 -35 16
-28 20 4 33 0 46 -15 16 -18 17 -22 3 -36 -19 -19 -27 -19 -27 -1 0 23 -20 29
-39 12 -23 -21 -33 -20 -29 2 2 14 -3 16 -34 14 l-37 -3 32 34 c18 18 36 33
41 33 5 -1 11 5 13 12 3 8 -1 10 -11 6 -11 -4 -16 -1 -16 10 0 17 40 31 69 23
15 -3 20 2 25 25 5 27 8 28 39 23 l33 -7 -1 56 c-1 73 -14 86 -60 62 -43 -24
-45 -44 -5 -58 37 -12 34 -33 -3 -33 -15 -1 -33 -10 -41 -20 -8 -11 -18 -17
-22 -12 -4 4 3 21 15 38 27 37 21 47 -16 28 -16 -7 -31 -15 -35 -17 -5 -2 -8
1 -8 7 0 6 7 11 15 11 9 0 18 7 21 15 4 8 12 15 19 15 7 0 20 10 29 23 43 61
41 60 77 38 l33 -20 11 22 c6 12 23 24 40 27 24 4 26 7 13 12 -26 11 -22 28 7
28 16 0 25 -6 25 -15z m1386 -120 c14 -44 3 -65 -25 -48 -24 15 -34 3 -25 -32
6 -26 18 -32 29 -15 7 12 25 4 25 -11 0 -5 -7 -9 -16 -9 -13 0 -15 -7 -11 -36
7 -39 16 -37 -83 -18 -20 4 -30 12 -30 24 0 10 -3 25 -6 33 -4 11 2 16 17 19
14 2 30 15 39 33 8 17 21 34 28 38 6 4 12 16 12 26 0 43 32 41 46 -4z m-3178
-289 c-7 -31 -18 -56 -24 -56 -15 0 -21 -38 -19 -117 1 -39 -3 -63 -9 -63 -18
0 -88 44 -99 61 -15 24 -2 60 38 106 19 23 35 49 35 60 1 27 32 61 60 65 14 2
26 3 28 2 2 -1 -2 -27 -10 -58z m2737 39 c1 -37 14 -46 53 -36 1 1 -2 11 -9
23 -10 18 -9 20 6 15 9 -4 29 -7 43 -8 26 0 26 -1 5 -9 -34 -14 -30 -49 7 -61
17 -6 30 -16 30 -21 0 -6 9 -8 20 -5 11 3 20 1 20 -5 0 -10 -19 -8 -65 7 -17
5 -20 1 -20 -20 0 -23 3 -26 27 -21 33 7 46 -19 22 -45 -14 -16 -15 -21 -3
-35 12 -15 11 -16 -9 -10 -17 6 -22 3 -22 -9 0 -12 5 -15 21 -10 21 7 22 5 16
-35 -6 -46 11 -63 39 -39 14 12 14 14 -1 25 -15 11 -14 14 7 29 21 15 22 17 6
29 -16 12 -16 14 7 26 20 10 28 11 37 2 14 -14 58 -16 58 -3 0 5 -9 13 -20 16
-22 7 -27 25 -7 25 15 -1 50 -47 43 -59 -9 -14 23 -35 52 -36 22 0 28 -5 30
-27 3 -25 8 -28 38 -28 33 0 45 12 24 25 -19 12 -10 25 16 25 20 0 25 -4 20
-16 -3 -9 -6 -22 -6 -30 0 -8 -7 -14 -15 -14 -18 0 -18 -2 -3 -35 11 -24 38
-35 38 -15 0 16 18 12 39 -9 10 -10 25 -21 32 -24 12 -5 12 -7 -1 -16 -22 -15
-2 -27 21 -12 28 17 35 7 20 -26 -9 -20 -9 -29 -2 -31 6 -2 38 -26 71 -54 60
-49 76 -74 42 -64 -12 4 -20 -1 -27 -17 -12 -27 -44 -29 -59 -4 -9 14 -7 21 7
31 20 16 23 36 4 36 -19 0 -97 -69 -97 -85 0 -21 31 -34 56 -25 24 10 34 4 34
-18 0 -11 -8 -13 -35 -9 -31 5 -37 3 -47 -19 -14 -29 -42 -31 -61 -3 -15 20
-15 20 -63 -14 -30 -21 -66 -36 -92 -40 -40 -5 -44 -3 -53 21 -8 20 -7 29 4
37 10 7 11 14 4 27 -8 12 -6 23 6 42 24 36 21 53 -5 28 -46 -43 -98 -46 -98
-6 0 7 -6 14 -12 17 -7 2 4 14 25 27 44 26 49 44 8 35 -18 -4 -32 -2 -36 5
-10 15 24 90 41 90 15 0 30 60 16 69 -5 3 -12 15 -16 27 -9 29 34 52 72 38 21
-8 31 -7 40 2 18 19 15 26 -8 19 -14 -4 -20 -2 -20 8 0 26 -40 67 -66 67 -27
0 -33 -24 -9 -34 19 -7 20 -26 2 -26 -8 0 -19 -11 -25 -25 -6 -14 -18 -25 -27
-25 -9 0 -15 -9 -15 -21 0 -12 -8 -23 -20 -26 -22 -6 -26 -18 -10 -28 8 -5 8
-11 0 -20 -8 -10 -7 -16 6 -23 11 -6 13 -11 5 -16 -6 -4 -11 -2 -11 3 0 18
-28 12 -33 -6 -4 -14 -5 -14 -6 3 0 12 -8 28 -17 35 -14 11 -19 10 -37 -11
-12 -16 -21 -20 -24 -13 -3 8 -16 10 -36 6 -27 -5 -30 -3 -19 8 7 8 23 15 35
16 12 1 44 5 71 9 l49 7 -22 18 -23 19 26 0 c29 0 35 15 9 24 -15 6 -15 8 -3
16 24 15 6 21 -23 7 -14 -6 -28 -21 -30 -32 -2 -11 -4 1 -4 28 0 37 3 47 16
47 9 0 22 -5 29 -12 21 -21 24 0 3 23 -12 13 -21 26 -21 31 0 12 -48 10 -55
-2 -3 -5 -1 -10 4 -10 18 0 12 -21 -11 -41 -13 -10 -17 -18 -10 -19 17 0 15
-25 -4 -41 -9 -7 -20 -23 -25 -35 -4 -13 -17 -28 -29 -34 -23 -12 -26 -2 -6
25 8 11 12 25 9 32 -3 7 2 13 10 13 8 0 21 7 28 16 11 14 11 18 -4 29 -23 16
-22 25 3 25 13 0 20 7 20 18 0 26 -11 34 -27 21 -14 -12 -17 -3 -14 34 1 9 -3
17 -8 17 -6 0 -11 7 -11 15 0 8 4 15 9 15 5 0 11 -7 15 -15 3 -8 14 -15 25
-15 11 0 23 -4 26 -10 8 -13 45 -13 45 -1 0 5 -6 12 -12 15 -9 3 -8 8 5 16 30
19 19 27 -32 22 -48 -4 -50 -4 -45 19 l6 24 -19 -21 c-10 -12 -27 -24 -38 -28
-14 -5 -16 -9 -7 -15 9 -5 11 -17 6 -35 -9 -39 -24 -42 -23 -4 2 68 -13 130
-32 135 -17 5 -17 7 -1 31 16 25 16 25 -11 20 -14 -3 -24 -1 -21 3 3 5 -5 9
-17 9 -18 0 -20 2 -9 15 9 11 28 15 62 14 28 -2 54 3 61 10 18 18 52 9 52 -14z
m-3414 -60 c36 5 63 1 120 -19 45 -16 113 -29 173 -35 94 -8 102 -10 128 -40
29 -33 29 -41 -5 -98 -19 -33 -28 -37 -78 -33 -14 0 -36 -8 -50 -19 -20 -16
-22 -23 -13 -38 11 -17 9 -19 -20 -15 -17 3 -39 13 -49 23 -10 11 -22 19 -27
19 -5 0 -32 20 -60 45 -45 40 -56 45 -97 45 -33 0 -55 7 -78 24 -35 27 -59 91
-49 130 5 22 9 24 32 15 15 -6 47 -7 73 -4z m1514 -326 c-6 -25 -3 -31 13 -36
13 -3 19 -10 15 -20 -3 -8 6 -27 21 -42 22 -23 25 -32 17 -53 -12 -33 -54 -78
-72 -78 -8 0 -4 -9 11 -20 l25 -21 -30 7 c-16 4 -31 10 -33 13 -22 49 -29 56
-62 54 -34 -1 -64 -27 -57 -48 2 -5 12 -9 22 -8 32 3 65 -16 65 -36 0 -11 -6
-21 -12 -24 -10 -3 -8 -9 5 -24 16 -19 16 -21 -2 -37 -29 -26 -57 -17 -53 17
3 30 -9 35 -29 11 -11 -14 -11 -18 2 -28 26 -18 11 -36 -24 -29 -18 3 -37 10
-44 15 -7 6 -18 8 -24 6 -7 -2 -25 8 -42 23 -24 22 -28 32 -23 56 5 21 2 34
-9 43 -24 20 -18 29 14 20 21 -6 35 -4 48 6 10 7 28 14 41 14 14 0 29 11 42
32 l20 33 -23 8 -22 8 22 19 c20 16 22 24 16 67 -6 44 -5 47 11 34 14 -12 21
-12 42 0 21 11 27 11 34 0 6 -11 14 -10 39 5 17 10 31 24 31 31 0 7 3 13 6 13
3 0 3 -14 -1 -31z m2840 -79 c3 -5 16 -10 28 -10 30 -1 50 -19 62 -55 6 -19
23 -37 45 -47 18 -10 38 -25 43 -34 8 -14 6 -16 -19 -11 -30 5 -74 -7 -74 -22
0 -5 6 -9 13 -8 33 1 47 -4 47 -17 0 -8 14 -28 30 -44 17 -17 30 -35 30 -41 0
-6 3 -11 8 -11 4 0 13 -13 20 -30 10 -23 20 -30 41 -30 15 0 32 -5 38 -11 15
-15 5 -39 -16 -39 -10 0 -30 -13 -46 -30 -31 -32 -53 -37 -87 -19 -27 15 -126
20 -133 8 -9 -13 -51 -11 -63 4 -8 9 -7 21 3 41 27 52 21 64 -29 59 -27 -3
-46 -1 -50 6 -9 13 15 71 28 71 18 0 46 34 46 56 0 12 12 37 27 54 24 29 25
33 10 42 -9 5 -17 17 -17 27 0 26 -10 31 -31 18 -10 -6 -21 -8 -25 -4 -10 10
10 72 23 72 6 0 15 3 19 8 10 10 22 9 29 -3z m-1160 -119 c-7 -41 2 -55 29
-45 10 4 16 18 16 39 0 19 4 36 9 40 11 6 9 -60 -2 -71 -4 -4 -7 -18 -7 -31 0
-13 -7 -26 -15 -29 -23 -9 -18 -27 19 -64 19 -18 36 -42 38 -54 4 -25 37 -32
70 -15 13 7 28 13 35 14 7 0 26 16 42 35 17 19 30 29 31 23 0 -7 -4 -13 -8
-13 -5 0 -14 -16 -22 -35 -8 -19 -20 -35 -27 -35 -15 0 -16 -5 -4 -29 9 -15
16 -16 55 -7 56 13 65 41 11 30 -36 -6 -51 10 -17 18 26 7 82 -3 82 -14 0 -19
-65 -68 -90 -68 -14 0 -31 -5 -38 -12 -9 -9 -12 -8 -12 5 0 20 -30 23 -48 5
-13 -13 -17 -68 -4 -68 4 0 12 4 17 9 16 14 97 21 92 8 -2 -7 -17 -13 -35 -15
-17 -2 -36 -9 -42 -17 -14 -17 -73 3 -65 23 3 8 5 27 5 43 0 23 6 31 35 43 38
16 44 30 19 40 -20 8 -50 -9 -64 -34 -6 -11 -23 -20 -43 -22 -31 -3 -32 -4
-29 -45 3 -37 1 -41 -16 -36 -11 2 -23 0 -26 -6 -4 -6 -15 -11 -24 -11 -9 0
-26 -12 -39 -27 -31 -38 -29 -15 2 28 19 24 34 34 53 34 26 0 27 2 24 47 -3
42 -1 47 20 50 19 2 24 10 26 46 3 36 0 42 -16 42 -11 0 -27 -12 -37 -26 -12
-19 -20 -23 -28 -15 -8 8 -4 18 16 37 31 28 34 46 12 64 -8 7 -15 27 -15 44 0
18 -6 38 -12 45 -11 10 -10 15 5 25 9 7 17 21 17 30 0 9 3 16 6 16 3 0 3 -18
-1 -39z m-1506 4 c14 -13 14 -17 -2 -32 -13 -13 -19 -14 -29 -5 -9 9 -9 12 0
12 7 0 12 5 12 10 0 6 -7 10 -15 10 -8 0 -15 -5 -15 -11 0 -6 -7 -8 -17 -5
-10 4 -14 4 -10 0 4 -4 1 -14 -5 -21 -9 -12 -9 -14 3 -13 25 4 36 0 62 -23 15
-12 27 -30 27 -39 0 -9 7 -21 16 -26 16 -9 22 -60 10 -81 -4 -6 -4 -11 1 -11
4 0 19 -3 33 -7 24 -6 24 -6 8 18 -15 23 -15 26 0 37 11 8 13 14 6 18 -29 13
-45 31 -48 54 -1 14 -8 35 -14 47 -16 28 0 38 21 12 9 -10 26 -19 37 -19 11 0
20 -4 20 -10 0 -5 -8 -10 -18 -10 -10 0 -21 -3 -25 -6 -10 -11 16 -53 37 -60
12 -4 33 -21 47 -38 22 -25 29 -28 42 -18 12 10 16 9 21 -10 6 -23 7 -23 21
-4 16 21 20 40 7 32 -5 -3 -18 15 -30 39 -15 31 -18 45 -9 49 7 2 7 5 1 5 -5
1 -19 -6 -30 -14 -19 -15 -19 -15 0 -30 13 -10 16 -19 10 -25 -6 -6 -21 0 -42
16 -39 31 -43 57 -7 48 20 -5 27 -1 36 20 14 29 20 31 37 14 9 -9 12 -9 12 3
0 8 -5 20 -12 27 -9 9 -9 15 0 24 9 9 12 7 12 -10 0 -23 14 -29 25 -11 9 13
28 7 31 -12 1 -7 6 -23 10 -34 7 -18 6 -19 -11 -5 -17 14 -18 13 -13 -8 5 -19
3 -22 -13 -17 -23 7 -24 -3 -5 -39 13 -25 15 -26 30 -10 10 9 14 24 11 35 -5
15 -1 19 15 19 16 0 20 -4 16 -16 -5 -13 -1 -15 19 -10 24 6 25 5 14 -16 -6
-13 -8 -20 -4 -16 4 4 25 -3 48 -15 48 -25 35 -35 -17 -13 -23 10 -38 11 -42
5 -3 -6 -17 -8 -31 -4 -22 5 -24 3 -21 -22 2 -17 9 -28 18 -28 8 0 15 -8 15
-19 0 -17 -8 -18 -75 -17 -41 0 -84 2 -95 3 -14 2 -21 -4 -23 -19 -4 -28 20
-30 68 -6 32 16 34 15 51 -5 22 -27 41 -28 64 -2 24 26 35 25 35 -3 0 -16 -9
-28 -27 -38 -16 -7 -36 -22 -46 -31 -20 -20 -19 -55 1 -50 17 3 15 -23 -3 -38
-18 -15 -45 -6 -45 16 0 12 -6 15 -21 11 -53 -14 -63 16 -22 70 l28 36 -47 -7
c-43 -7 -47 -5 -50 16 -4 30 -32 30 -36 0 -3 -22 -5 -21 -44 13 -23 19 -46 31
-52 27 -34 -22 -74 1 -43 26 16 13 98 4 118 -14 15 -13 29 -10 29 7 0 9 -84
59 -100 59 -6 0 -8 -4 -5 -10 3 -5 4 -10 0 -10 -3 0 -10 11 -15 25 -7 17 -17
25 -34 25 -19 0 -25 6 -28 30 -3 17 -1 30 4 30 5 0 6 5 2 11 -3 6 -1 15 6 19
11 7 10 13 -4 34 -10 16 -12 26 -5 26 6 0 8 7 5 16 -4 9 -1 23 6 31 15 18 74
11 97 -12z m-781 -268 c7 -8 7 -18 2 -27 -5 -8 -5 -21 1 -32 6 -12 6 -25 -2
-40 -7 -13 -15 -30 -19 -38 -5 -9 -18 -14 -33 -12 -21 2 -27 -3 -37 -33 -14
-43 -7 -55 30 -55 23 0 31 -5 36 -24 8 -32 -3 -49 -27 -43 -16 4 -19 0 -19
-29 0 -22 -5 -34 -13 -34 -18 0 -41 45 -34 64 4 9 -6 27 -23 45 -40 39 -40 78
0 116 26 25 34 28 50 17 13 -8 21 -8 26 -1 6 10 13 61 14 104 1 31 30 44 48
22z m1702 -99 c0 -7 -7 -26 -16 -43 -12 -24 -13 -33 -2 -53 11 -21 10 -26 -5
-37 -18 -13 -23 -45 -7 -45 6 0 10 5 10 10 0 6 11 15 24 20 18 7 23 14 19 29
-3 12 -11 21 -19 21 -13 0 -13 4 1 45 5 16 8 17 15 5 5 -8 7 -22 4 -31 -6 -22
22 -32 32 -11 4 9 6 23 5 30 -1 6 3 12 8 12 15 0 23 -18 11 -25 -5 -3 -10 -19
-10 -35 0 -19 -6 -31 -19 -35 -25 -8 -52 -50 -45 -69 8 -22 -14 -56 -36 -56
-14 0 -20 -7 -20 -24 0 -27 -19 -39 -41 -26 -9 6 -21 2 -36 -12 -12 -11 -26
-17 -32 -13 -7 3 -11 -2 -11 -14 0 -11 4 -22 9 -26 5 -3 15 -29 21 -58 9 -44
8 -60 -5 -90 -9 -21 -20 -35 -25 -32 -9 5 -4 29 10 50 4 6 4 21 0 35 -7 30
-13 21 -30 -45 -7 -27 -17 -55 -21 -61 -5 -6 -6 -14 -2 -17 3 -4 -1 -7 -10 -7
-10 0 -16 6 -15 12 2 7 -8 14 -22 16 -14 2 -31 11 -37 20 -15 19 -17 36 -3 27
6 -3 10 2 10 12 0 10 12 31 26 46 35 39 55 79 44 92 -14 17 16 46 50 47 30 1
32 3 26 32 -4 17 -11 33 -16 34 -15 5 -12 30 6 57 15 23 17 23 40 8 16 -10 23
-22 19 -33 -7 -23 18 -33 40 -16 17 12 17 13 0 20 -17 6 -17 7 0 20 18 13 12
42 -6 31 -13 -9 -11 2 6 35 16 32 8 69 -22 102 -15 16 -15 18 0 18 9 0 20 -8
26 -17 5 -10 12 -15 16 -11 3 3 0 16 -7 27 -11 18 -11 23 2 31 21 14 40 12 40
-2z m165 -168 c-4 -37 -12 -50 -30 -50 -8 0 -18 -6 -22 -13 -4 -7 -20 -18 -35
-24 -29 -13 -34 -28 -18 -53 8 -12 11 -12 28 3 10 9 28 17 40 17 11 0 28 7 36
16 13 13 16 13 16 1 0 -18 -18 -34 -45 -39 -14 -3 -19 -11 -18 -26 3 -23 -12
-31 -20 -9 -3 9 -8 8 -22 -3 -10 -8 -26 -14 -37 -12 -10 2 -18 -2 -18 -7 0 -6
-6 -11 -14 -11 -17 0 -54 -42 -81 -93 -11 -20 -23 -37 -27 -37 -15 0 -8 51 7
56 8 4 15 15 15 25 0 11 7 22 15 25 8 4 15 11 15 16 0 6 -11 3 -25 -6 -30 -20
-31 -20 -39 -1 -4 10 6 20 30 30 19 8 40 14 46 12 6 -1 15 12 22 28 17 47 38
73 53 68 8 -3 19 8 27 28 18 44 26 51 42 38 9 -7 17 -2 30 20 23 39 34 39 29
1z m537 -35 c17 -6 19 -12 14 -41 -7 -34 6 -74 24 -74 5 0 10 19 12 42 2 23 8
43 15 45 14 5 7 -64 -9 -83 -12 -17 9 -65 31 -71 11 -3 22 -17 26 -31 3 -15 9
-36 12 -47 5 -17 4 -18 -11 -6 -9 7 -16 21 -16 31 0 27 -25 44 -39 27 -6 -8
-8 -17 -4 -20 14 -14 -20 -57 -45 -57 l-25 0 21 23 c12 13 22 30 22 38 0 8 5
20 10 25 16 16 -3 56 -40 87 -17 15 -36 27 -42 27 -5 0 -8 6 -5 13 2 6 9 12
15 12 17 0 35 22 28 34 -4 6 -25 11 -47 11 -43 0 -48 9 -21 32 27 24 47 27 50
7 2 -10 12 -21 24 -24z m-661 -236 c9 -42 1 -56 -16 -32 -13 17 -15 15 -21
-15 -4 -22 -15 -37 -29 -42 -21 -8 -43 -56 -30 -68 3 -3 5 2 5 10 0 9 6 21 14
27 19 16 32 -5 15 -25 -20 -24 -2 -27 21 -4 14 14 20 29 17 42 -5 17 19 58 26
47 19 -29 34 -79 27 -84 -6 -3 -10 -11 -10 -17 0 -6 3 -8 6 -5 4 3 16 2 26 -4
14 -8 17 -14 9 -22 -7 -7 -14 -7 -24 1 -24 20 -56 10 -67 -21 -13 -37 -52 -78
-67 -69 -6 4 -16 26 -22 49 -6 23 -18 49 -26 57 -20 19 -19 32 0 16 8 -7 16
-9 16 -4 1 5 2 14 3 20 3 26 42 94 54 94 8 0 16 9 19 20 3 11 12 20 19 20 11
0 13 7 8 26 -5 20 -3 25 7 22 7 -2 17 -20 20 -39z m-1261 -305 c0 -8 7 -17 16
-21 11 -4 13 -13 9 -34 -5 -20 -1 -33 14 -48 20 -20 33 -19 26 2 -2 7 -6 31
-9 55 -5 34 -3 42 9 42 9 0 18 -7 22 -16 3 -9 12 -13 21 -9 16 6 32 -10 32
-33 0 -10 -5 -10 -20 -2 -32 17 -41 3 -22 -36 16 -34 16 -37 -1 -49 -13 -9
-16 -20 -11 -39 7 -29 -4 -33 -37 -15 -13 7 -18 16 -14 29 6 19 -13 60 -27 60
-5 0 -8 -7 -8 -16 0 -30 -23 -8 -25 24 -2 21 2 32 10 32 22 0 29 39 11 59 -18
19 -22 46 -6 36 6 -3 10 -13 10 -21z m1800 -193 c0 -3 -7 -14 -15 -25 -10 -13
-11 -24 -5 -37 6 -10 10 -31 10 -48 0 -22 4 -29 14 -25 17 6 31 -12 16 -21 -5
-3 -10 -24 -10 -46 0 -27 -4 -39 -14 -39 -8 0 -21 -2 -28 -5 -9 -4 -19 4 -26
17 l-11 23 -7 -22 c-3 -13 -10 -20 -15 -17 -12 7 -11 44 1 44 6 0 10 7 10 15
0 8 -6 15 -14 15 -11 0 -12 8 -6 34 4 18 10 39 14 45 4 6 2 11 -3 11 -6 0 -11
7 -11 15 0 27 17 16 35 -22 12 -26 14 -38 6 -41 -16 -5 -13 -32 4 -32 8 0 15
-7 15 -15 0 -8 5 -15 11 -15 7 0 9 8 4 23 -4 12 -7 39 -7 60 1 30 -2 37 -17
37 -17 0 -18 3 -8 25 7 14 15 25 20 25 4 0 7 9 7 20 0 13 5 18 15 14 8 -4 15
-9 15 -13z m-2056 -83 c8 -13 19 -42 25 -65 7 -23 16 -45 21 -48 6 -4 17 -22
25 -41 17 -40 31 -43 47 -9 13 29 31 28 37 -1 2 -10 12 -25 22 -32 22 -15 24
-40 8 -76 -9 -19 -8 -29 5 -47 9 -13 16 -36 16 -51 0 -21 7 -31 26 -38 33 -13
34 -13 34 5 0 8 5 15 10 15 6 0 10 11 10 24 0 14 5 28 10 31 6 3 10 3 10 -2 0
-12 53 -13 67 -1 7 5 17 7 22 4 11 -7 3 -37 -13 -49 -7 -5 -4 -13 9 -25 12
-10 19 -26 17 -40 -2 -13 3 -29 12 -35 31 -23 -11 -83 -43 -63 -5 4 -16 4 -24
0 -12 -4 -13 -11 -4 -34 10 -26 8 -32 -10 -49 -11 -11 -23 -17 -27 -14 -3 3
-8 -1 -11 -9 -4 -9 6 -29 24 -49 34 -37 39 -57 16 -65 -22 -9 -45 14 -45 45 0
24 -31 71 -47 71 -3 0 -23 -20 -44 -44 -24 -27 -57 -51 -84 -62 -38 -14 -45
-21 -45 -44 0 -32 -23 -55 -45 -46 -17 6 -20 47 -5 74 5 9 16 43 25 74 9 35
24 64 40 76 22 18 23 22 12 53 -14 39 -46 71 -65 64 -7 -3 -17 7 -22 21 -14
37 -12 54 7 54 9 0 14 3 10 6 -3 4 -18 4 -32 0 -18 -5 -25 -13 -25 -31 0 -28
-6 -30 -35 -12 -24 14 -30 34 -15 52 8 10 8 19 1 34 -6 11 -11 40 -11 65 0 31
-5 49 -18 58 -24 18 -42 62 -42 102 0 29 -4 34 -30 40 -21 4 -30 11 -30 25 0
20 32 39 38 22 2 -6 7 -9 12 -6 5 3 20 0 34 -6 22 -10 28 -9 45 12 11 13 20
27 21 31 1 19 21 58 30 58 5 0 16 -10 24 -22z m-360 -228 c29 0 56 -20 56 -40
0 -11 4 -20 9 -20 15 0 22 -32 9 -47 -9 -11 -8 -21 6 -43 16 -29 16 -31 -6
-61 -25 -34 -59 -52 -82 -43 -16 6 -27 40 -31 98 -2 21 -7 42 -12 45 -15 11
-33 61 -33 91 0 36 28 55 51 34 8 -8 23 -14 33 -14z m1217 -643 c9 -7 20 -25
25 -41 7 -20 20 -32 44 -40 29 -9 36 -16 38 -43 2 -18 -1 -33 -7 -33 -19 0
-43 -61 -37 -94 19 -111 26 -119 82 -93 20 10 36 12 39 7 11 -17 25 -11 25 11
0 12 -11 30 -24 40 -16 13 -26 33 -31 66 -3 27 -9 58 -12 70 -4 18 1 25 23 33
19 8 29 8 34 0 4 -7 18 -8 33 -4 28 6 117 -15 117 -28 0 -4 8 -8 17 -8 25 0
53 -30 53 -57 0 -12 -4 -23 -8 -23 -15 0 -64 -100 -59 -120 3 -13 -6 -24 -34
-39 -21 -12 -38 -25 -38 -29 3 -21 -4 -31 -31 -42 -24 -10 -39 -10 -76 0 -25
7 -53 20 -61 28 -14 14 -17 14 -27 1 -30 -42 -93 -50 -142 -20 l-31 19 -42
-29 c-35 -23 -46 -26 -66 -17 -55 25 -47 81 22 155 32 34 43 40 66 36 17 -3
33 -15 40 -30 8 -17 13 -20 19 -11 10 17 10 65 0 72 -5 3 -8 62 -7 132 2 94 6
129 16 135 18 11 21 11 40 -4z"/>
<path d="M3060 4442 c0 -10 -5 -23 -11 -29 -8 -8 -8 -25 -1 -60 10 -43 9 -50
-9 -68 -19 -19 -21 -19 -49 -3 -27 15 -70 15 -70 -1 0 -4 8 -16 18 -27 9 -10
17 -36 18 -57 0 -31 -3 -38 -23 -43 -36 -9 -28 -27 10 -19 17 4 35 9 40 12 13
8 7 33 -8 33 -26 0 -14 31 18 43 9 3 17 13 17 22 0 21 27 19 46 -4 9 -10 24
-16 34 -14 24 6 36 -15 13 -24 -10 -4 -21 -11 -25 -17 -4 -6 -11 1 -17 17 -6
15 -15 27 -20 27 -17 0 -20 -28 -4 -49 8 -12 12 -25 9 -28 -3 -4 -6 -1 -6 5 0
7 -5 12 -11 12 -16 0 -6 -35 11 -35 8 -1 26 9 39 22 13 13 30 23 37 23 8 0 14
7 14 15 0 8 7 15 15 15 22 0 18 -19 -10 -56 -26 -34 -32 -54 -15 -54 6 0 10 5
10 11 0 7 7 17 15 23 9 6 18 34 22 64 5 48 4 52 -16 52 -28 0 -27 16 2 24 l22
6 -24 20 c-13 11 -21 24 -17 27 4 4 11 2 15 -5 6 -10 14 -8 33 8 15 11 33 20
42 20 16 0 21 12 9 23 -3 4 -15 0 -25 -10 -14 -12 -23 -14 -40 -6 l-23 10 23
12 c19 10 21 15 11 27 -6 8 -18 14 -26 14 -8 0 -26 9 -40 20 -32 25 -53 26
-53 2z"/>
<path d="M5562 3005 c4 -4 3 -14 -2 -20 -12 -15 -37 -111 -37 -140 0 -11 -3
-54 -7 -95 -7 -73 -6 -76 19 -100 14 -14 35 -40 47 -58 19 -30 22 -32 37 -18
22 20 45 20 65 1 19 -19 10 -44 -18 -55 -15 -6 -27 -2 -44 14 l-24 21 -19 -24
c-11 -13 -22 -35 -25 -50 -3 -14 -16 -56 -30 -93 -43 -115 -25 -153 86 -181
62 -16 84 -42 94 -112 8 -52 37 -85 76 -85 23 0 39 12 80 60 32 36 66 64 86
70 39 13 58 43 72 115 12 61 42 143 64 177 9 13 22 44 29 67 7 23 24 51 38 62
52 39 52 39 46 92 -3 34 -1 66 8 91 22 59 -5 148 -61 209 -32 34 -66 35 -116
1 -32 -22 -49 -26 -104 -25 -35 0 -84 -6 -108 -14 -24 -8 -73 -17 -109 -20
-62 -4 -68 -3 -91 22 -14 15 -28 40 -31 55 -3 16 -11 31 -17 35 -6 3 -8 3 -4
-2z"/>
<path d="M4361 1878 c-6 -18 -21 -40 -32 -49 l-21 -15 24 -36 c21 -32 26 -35
73 -34 45 1 51 4 63 31 8 17 20 42 27 57 18 38 -8 62 -58 53 -26 -5 -36 -3
-40 9 -10 25 -24 19 -36 -16z"/>
</g>
</svg>